<?xml version="1.0" encoding="utf-8"?>
<!-- Generator: Adobe Illustrator 16.0.0, SVG Export Plug-In . SVG Version: 6.00 Build 0)  -->
<!DOCTYPE svg PUBLIC "-//W3C//DTD SVG 1.1//EN" "http://www.w3.org/Graphics/SVG/1.1/DTD/svg11.dtd">
<svg version="1.1" id="Capa_1" xmlns="http://www.w3.org/2000/svg" xmlns:xlink="http://www.w3.org/1999/xlink" x="0px" y="0px"
	 width="250px" height="250px" viewBox="0 0 250 250" enable-background="new 0 0 250 250" xml:space="preserve">
<path fill="#FFFFFF" d="M107.681,144.104c-0.285,0.453-0.558,0.535-1.044,0.166c-0.455-0.346-0.941-0.694-1.594-0.744
	c-0.277-0.021-0.756-0.246-0.621-0.758c0.066-0.252-0.109-0.303-0.246-0.397c-2.44-1.759-4.88-3.513-7.32-5.271
	c-0.558-0.399-1.025-0.104-1.421,0.246c-0.708,0.633-1.385,1.295-2.298,1.637c-0.742,0.277-1.482,0.562-2.224,0.836
	c-0.239,0.091-0.432-0.03-0.619-0.15c-0.891-0.572-1.778-1.156-2.673-1.729c-0.379-0.239-0.583-0.608-0.706-1.008
	c-0.342-1.104-0.593-2.24-1.453-3.104c-0.142-0.143-0.13-0.336-0.027-0.551c0.349-0.729,0.43-1.508,0.415-2.313
	c-0.013-0.659-0.352-1-0.945-1.177c-1.539-0.455-3.071-0.938-4.673-1.128c-0.356-0.042-0.527-0.11-0.344-0.542
	c0.21-0.498-0.109-0.987-0.657-1.055c-0.328-0.037-0.33-0.22-0.328-0.451c0.004-0.531-0.011-1.063,0.017-1.595
	c0.019-0.372-0.104-0.51-0.487-0.499c-0.798,0.021-1.598,0.012-2.397-0.005c-0.211-0.005-0.54,0.138-0.57-0.253
	c-0.029-0.375,0.291-0.245,0.479-0.281c0.521-0.094,1.042-0.194,1.567-0.246c0.371-0.036,0.414-0.212,0.271-0.48
	c-0.295-0.555-0.547-1.073-0.364-1.766c0.071-0.269-0.296-0.655-0.456-0.972c0.927-0.315,1.371-1.023,1.719-1.86
	c0.167-0.402,0.499-0.739,0.849-1.021c0.205-0.165,0.442-0.291,0.662-0.435c0.817-0.536,0.838-0.548,0.377-1.452
	c-0.352-0.688-0.503-1.458-0.914-2.123c-0.196-0.316-0.111-0.612,0.252-0.758c1.083-0.435,1.768-1.376,2.661-2.053
	c0.417-0.316,0.449-0.63,0.161-1.067c-0.14-0.212-0.505-0.461-0.266-0.743c0.295-0.345,0.688-0.613,1.063-0.88
	c0.146-0.104,0.213,0.103,0.288,0.197c0.137,0.172,0.279,0.346,0.382,0.539c0.083,0.158,0.165,0.191,0.301,0.093
	c0.086-0.063,0.208-0.127,0.233-0.213c0.041-0.142-0.12-0.133-0.208-0.187c-0.687-0.423-0.721-0.701-0.171-1.237
	c0.08-0.077,0.167-0.149,0.235-0.235c0.396-0.501,0.9-0.85,1.121-1.571c0.222-0.726,0.947-1.309,1.487-1.92
	c0.221-0.251,0.476-0.078,0.572,0.17c0.149,0.382,0.503,0.437,0.818,0.585c-0.33-0.395-0.522-0.929-1.042-1.112
	c-0.967-0.339-1.698-0.766-1.763-1.989c-0.04-0.741-0.452-1.467-0.728-2.187c-0.178-0.465-0.163-0.829,0.28-1.149
	c0.339-0.245,0.648-0.542,0.932-0.85c0.293-0.319,0.616-0.541,1.121-0.517c-0.536-0.841-0.992-1.652-1.544-2.392
	c-0.369-0.494-0.176-0.678,0.28-0.75c0.444-0.07,0.468-0.246,0.251-0.567c-0.466-0.691-0.787-1.489-1.43-2.052
	c-0.237-0.208-0.102-0.333,0.021-0.494c0.549-0.719,1.083-1.45,1.654-2.152c0.247-0.304,0.344-0.512-0.099-0.687
	c-0.058-0.023-0.097-0.092-0.15-0.129c-0.956-0.676-0.956-0.676,0.025-1.381c-1.086-0.7-1.93-1.673-3.135-2.165
	c-0.486-0.198-0.549-0.769-0.837-1.147c-0.152-0.2-0.172-0.51-0.541-0.218c-0.217,0.173-0.356-0.08-0.451-0.249
	c-0.213-0.38-0.438-0.409-0.778-0.127c-0.304,0.252-0.653,0.457-1,0.65c-0.212,0.118-0.47,0.426-0.644-0.093
	c-0.083-0.25-0.338-0.148-0.509-0.039c-0.586,0.376-0.921,0.294-1.189-0.423c-0.417-1.112-0.471-1.092-1.537-0.485
	c-0.94,0.535-1.305,0.42-1.693-0.633c-0.483-1.313-1.303-2.465-1.661-3.856c-0.177-0.688-0.846-1.284-1.382-1.833
	c-0.644-0.659-1.43-1.179-2.073-1.838c-0.642-0.659-1.248-1.395-1.173-2.413c0.029-0.399,0.163-0.751,0.602-0.951
	c0.964-0.438,1.9-0.938,2.858-1.39c1.144-0.538,1.989-0.086,2.181,1.148c0.03,0.195-0.03,0.478,0.183,0.531
	c0.902,0.224,0.968,1.236,1.601,1.662c0.676,0.453,0.575,1.031,0.512,1.657c-0.015,0.15-0.018,0.328,0.047,0.457
	c0.543,1.086,0.646,2.336,1.277,3.391c0.242,0.404,1.671,0.948,2.092,0.732c0.315-0.162,0.185-0.485,0.146-0.711
	c-0.13-0.757-0.098-1.421,0.695-1.812c0.037-0.018,0.093-0.061,0.091-0.087c-0.093-0.844,0.667-0.757,1.103-0.948
	c1.215-0.534,2.43-1.052,3.525-1.824c0.296-0.209,0.417-0.385,0.345-0.746c-0.207-1.03-0.243-2.097-0.867-3.02
	C83.6,68.298,83.5,67.21,82.9,66.337c-0.175-0.255,0.231-0.446,0.506-0.525c0.869-0.252,1.734-0.513,2.609-0.74
	c0.439-0.114,0.616-0.312,0.409-0.755c-0.15-0.321-0.013-0.487,0.31-0.567c0.32-0.079,0.629-0.203,0.95-0.275
	c0.453-0.103,0.827-0.221,0.559-0.82c-0.057-0.125-0.05-0.357,0.148-0.384c0.477-0.065,0.858-0.391,1.447-0.224
	c0.518,0.146,0.514,0.345,0.534,0.732c0.082,1.59,0.519,3.03,1.717,4.175c0.427,0.409,0.956,0.541,1.468,0.727
	c2.402,0.877,4.837,1.665,7.206,2.621c1.744,0.704,3.208,1.905,4.619,3.138c2.093,1.831,4.253,3.544,6.57,5.113
	c2.191,1.483,4.335,3.096,6.346,4.851c1.216,1.061,2.447,2.106,3.699,3.125c1.188,0.966,1.893,2.154,1.789,3.715
	c-0.05,0.75,0.191,1.518-0.32,2.251c-0.271,0.39-0.439,0.529-0.859,0.352c-0.086-0.036-0.207,0.01-0.357,0.022
	c0.208,0.34,0.543,0.367,0.814,0.474c0.426,0.167-0.005,0.521,0.221,0.764c0.282-0.146,0.337-0.818,0.872-0.425
	c0.286,0.21,0.717,0.232,0.755,0.733c0.022,0.291,0.294,0.199,0.479,0.149c0.733-0.199,1.445-0.27,2.235-0.217
	c0.563,0.038,1.207-0.174,1.83-0.041c0.063,0.014,0.144,0.028,0.196,0.004c0.38-0.172,1.037,0.815,1.144-0.2
	c0.047-0.448,0.479-0.94,0.037-1.424c-0.179-0.198,0.06-0.282,0.17-0.328c0.938-0.383,1.694-1.083,2.64-1.457
	c0.392-0.153,0.758-0.309,0.977-0.8c0.191-0.436,0.711-0.134,1.193-0.129c-0.597,0.497-0.597,0.711-0.074,1.096
	c0.146,0.108,0.283,0.218,0.359,0.382c0.235,0.531,0.532,0.89,1.2,0.623c0.271-0.108,0.442,0.11,0.558,0.353
	c0.172,0.371,0.388,0.518,0.756,0.193c0.58-0.509,1.27-0.655,2.033-0.588c1.002,0.087,1.934-0.065,2.656-0.884
	c0.313-0.352,0.711-0.502,0.932,0.133c0.104,0.288,0.313,0.306,0.578,0.319c1.078,0.056,2.168,0.007,3.215,0.385
	c0.146,0.053,0.33,0.018,0.449,0.171c0.146,0.187,0.313,0.163,0.453,0.017c0.752-0.776,1.573-0.144,2.342-0.065
	c0.336,0.034,0.319,0.519,0.063,0.813c-0.429,0.488-0.95,0.861-1.499,1.192c-0.313,0.188-0.376,0.32-0.105,0.649
	c1.146,1.403,2.228,2.856,3.379,4.252c0.354,0.431,0.222,0.686-0.135,0.912c-0.955,0.606-1.43,1.594-2.021,2.485
	c-0.169,0.254-0.104,0.458,0.063,0.719c0.233,0.371,0.61,0.703,0.439,1.257c-0.083,0.273,0.247,0.295,0.415,0.284
	c0.896-0.062,1.731,0.372,2.627,0.288c0.231-0.021,0.437,0.055,0.604,0.22c0.234,0.231,0.51,0.32,0.848,0.268
	c0.547-0.088,0.867,0.092,0.718,0.754c0.796-0.292,1.457,0.135,2.131,0.32c0.461,0.127,0.498,0.606,0.172,1.034
	c-0.268,0.352-0.104,0.667,0.364,0.735c0.087,0.013,0.177-0.001,0.268,0c0.153,0.003,0.334-0.016,0.379,0.183
	c0.039,0.173-0.078,0.286-0.207,0.385c-0.326,0.253-0.668,0.457-0.844,0.896c-0.375,0.941,0.272,1.532,0.715,2.138
	c0.771,1.055,0.885,1.77,0.219,2.899c-0.307,0.519-0.574,1.035-1.248,1.255c-0.524,0.173-1.036,0.516-1.152,1.169
	c-0.055,0.295-0.332,0.264-0.521,0.338c-0.291,0.118-1.233,0.638-1.563,0.938c1.217,0.059,1.959,0.982,2.916,1.479
	c0.326,0.169,0.646,0.667,1.064,0.942c0.256,0.17,0.09,0.367-0.146,0.498c-0.133,0.073-0.471-0.187-0.396,0.218
	c0.043,0.228,0.06,0.569,0.3,0.612c1.104,0.194,1.661,1.111,2.424,1.753c0.306,0.258,0.608,0.513,0.912,0.772
	c0.123,0.104,0.276,0.226,0.416,0.159c0.538-0.264,0.696,0.102,0.84,0.485c0.076,0.21,0.218,0.265,0.411,0.23
	c0.201-0.035,0.306-0.149,0.29-0.371c-0.015-0.176,0.012-0.357-0.011-0.531c-0.045-0.389,0.142-0.511,0.5-0.49
	c0.726,0.04,1.451-0.043,2.162,0.227c1.36,0.518,2.569,0.018,3.666-0.74c0.594-0.41,1.043,0.148,1.564,0.058
	c0.016-0.003,0.085,0.188,0.096,0.292c0.055,0.602,0.053,1.246-0.228,1.756c-0.825,1.502-1.108,3.191-1.749,4.752
	c-0.01,0.021-0.004,0.051-0.016,0.064c-0.681,0.846-0.322,1.65,0.053,2.486c0.443,0.992,0.328,1.352-0.512,1.939
	c0.06,0.182,0.205,0.105,0.318,0.105c0.391-0.004,0.439,0.143,0.186,0.416c-0.254,0.271-0.238,0.619-0.209,0.938
	c0.117,1.238-0.099,2.415-0.563,3.563c-0.063,0.153-0.063,0.345-0.063,0.519c0,0.264-0.059,0.418-0.342,0.555
	c-0.527,0.253-0.496,0.88,0.002,1.175c0.873,0.518,1.03,1.438,1.096,2.291c0.092,1.188,0.074,2.381,0.285,3.563
	c0.164,0.912-0.539,1.551-0.865,2.306c-0.291,0.675-0.271,1.138,0.229,1.653c0.677,0.701,1.415,1.316,2.294,1.754
	c0.328,0.164,0.559,0.432,0.801,0.688c0.434,0.457,0.92,0.637,1.551,0.442c0.39-0.118,0.947-0.271,1.135,0.155
	c0.277,0.643,0.9,1.23,0.445,2.086c-0.459,0.859-1.284,1.207-2.055,1.6c-4.121,2.104-7.772,4.906-11.468,7.65
	c-0.22,0.164-0.474,0.328-0.453,0.688c0.044,0.818-0.504,1.217-1.18,1.349c-1.104,0.215-1.963,0.881-2.91,1.389
	c-0.437,0.234-0.793,0.545-1.021,1.002c-0.114,0.232-0.279,0.438-0.535,0.568c-1.984,1.049-4.014,1.805-6.34,1.379
	c-0.695-0.129-1.453,0.024-2.176,0.094c-0.521,0.052-0.637-0.151-0.621-0.639c0.035-1.195-0.031-2.398,0.026-3.595
	c0.047-0.967-0.293-1.785-0.623-2.666c-0.371-0.994-1.032-1.058-1.901-1.313c-1.25-0.365-2.361,0.074-3.535,0.074
	c-0.266,0-0.527-0.021-0.793-0.059c-0.52-0.063-0.979-0.041-1.004,0.645c-0.018,0.426-0.316,0.334-0.569,0.347
	c-0.44,0.021-0.931-0.319-1.295-0.065c-0.386,0.265-0.071,0.822-0.229,1.244c-0.238,0.646-0.604,1.22-0.938,1.812
	c-0.127,0.226-0.303,0.224-0.51,0.176c-0.321-0.073-0.644-0.149-0.965-0.213c-0.281-0.051-0.498,0-0.654,0.3
	c-0.34,0.647-0.644,0.694-1.006,0.081c-0.355-0.604-0.592-0.452-0.941-0.041c-0.715,0.843-1.666,0.73-2.604,0.576
	c-0.258-0.043-0.487-0.229-0.666,0.129c-0.098,0.195-0.261,0.095-0.401,0.021c-0.388-0.191-0.716-0.592-1.233-0.195
	c-0.169,0.127-1.554-0.9-1.646-1.197c-0.092-0.291-0.229-0.535-0.5-0.67c-0.474-0.229-0.67-0.504-0.171-0.902
	c-0.188-0.188-0.357-0.082-0.408,0.039c-0.291,0.695-0.99,0.603-1.53,0.801c-0.464,0.173-0.532-0.286-0.695-0.534
	c-0.45-0.683-0.562-0.736-0.995-0.056c-1.076,1.687-2.884,2.265-4.519,3.113c-0.329,0.174-0.461-0.008-0.616-0.26
	c-0.717-1.166-1.375-2.363-2.111-3.521c-0.332-0.521-0.599-0.652-1.206-0.521c-1.16,0.252-1.226,0.32-0.574,1.332
	c0.495,0.768,0.173,1.414-0.725,1.49c-0.416,0.035-0.855,0.041-1.237,0.186c-0.669,0.252-0.815-0.104-0.884-0.625
	c-0.049-0.375,0.173-0.883-0.476-0.959c0.076-0.754-0.269-1.051-1.011-1.174c-0.155-0.023-0.219-0.881-0.239-1.355
	c-0.021-0.494-0.095-0.795-0.701-0.766c-0.382,0.021-0.714-0.627-0.559-0.961c0.496-1.057,0.392-1.434-0.503-2.27
	c-0.241-0.226-0.286-0.614-0.201-0.93c0.303-1.123,0.813-2.138,1.757-2.867c0.291-0.227,0.189-0.455,0.098-0.701
	c-0.483-1.313-1.202-2.508-1.885-3.719c-0.454-0.806-0.442-1.654-0.508-2.539c-0.12-1.599,0.989-2.679,1.454-4.021
	c0.199-0.576,0.51-1.11,0.771-1.666c0.066-0.272,0.216-0.504,0.368-0.735C108.025,143.803,107.928,144.032,107.681,144.104z"/>
<path fill="#F0F0F0" d="M107.681,143.84c0.246-0.279,0.282-0.723,0.723-0.943c0.037,0.57-0.325,0.867-0.595,1.209
	C107.8,144,107.787,143.898,107.681,143.84z"/>
<path fill="#2B2B2B" d="M126.665,121.153c-0.228-0.339-0.451-0.661-0.661-0.991c-0.809-1.282-1.622-2.563-2.416-3.855
	c-0.394-0.641-0.76-1.301-1.115-1.964c-0.494-0.922-0.981-1.848-1.44-2.788c-0.454-0.927-0.844-1.882-1.145-2.871
	c-0.2-0.663-0.349-1.336-0.316-2.037c0.037-0.811,0.186-1.6,0.487-2.359c0.251-0.636,0.582-1.226,1-1.764
	c0.523-0.673,1.149-1.233,1.874-1.682c0.475-0.292,0.975-0.524,1.503-0.698c0.534-0.176,1.078-0.299,1.641-0.324
	c0.266-0.012,0.53-0.037,0.799-0.03c0.819,0.021,1.612,0.176,2.377,0.477c0.677,0.267,1.306,0.615,1.863,1.082
	c0.229,0.191,0.456,0.387,0.663,0.6c0.679,0.697,1.188,1.502,1.533,2.413c0.232,0.622,0.359,1.266,0.435,1.927
	c0.104,0.967-0.097,1.882-0.421,2.774c-0.284,0.776-0.6,1.542-0.938,2.296c-0.313,0.698-0.656,1.384-1.016,2.061
	c-0.423,0.793-0.861,1.577-1.314,2.352c-0.56,0.951-1.127,1.896-1.711,2.829c-0.521,0.829-1.065,1.641-1.604,2.459
	C126.729,121.084,126.705,121.107,126.665,121.153z M126.673,103.221c-1.896-0.001-3.362,1.483-3.361,3.353
	c0.001,1.871,1.43,3.284,3.211,3.352c2.045,0.078,3.512-1.503,3.51-3.351C130.031,104.718,128.58,103.22,126.673,103.221z"/>
<g>
	<path fill="#2B2B2B" d="M114.244,133.547l-0.709,0.789v2.316h-3.106v-9.373h3.106v3.4l3.079-3.4h3.44l-3.749,4.125l3.936,5.248
		h-3.655L114.244,133.547z"/>
	<path fill="#2B2B2B" d="M122.531,136.236c-0.803-0.418-1.433-1.002-1.887-1.746c-0.456-0.746-0.683-1.588-0.683-2.523
		c0-0.938,0.228-1.777,0.683-2.523c0.455-0.742,1.084-1.324,1.887-1.744c0.804-0.422,1.709-0.631,2.717-0.631
		c1.009,0,1.915,0.209,2.718,0.631c0.804,0.42,1.433,1.002,1.888,1.744c0.455,0.746,0.686,1.59,0.686,2.523
		c0,0.936-0.229,1.777-0.686,2.523c-0.453,0.744-1.084,1.328-1.888,1.746c-0.804,0.42-1.709,0.629-2.718,0.629
		C124.24,136.865,123.334,136.656,122.531,136.236z M122.899,126.298c-0.228-0.22-0.341-0.502-0.341-0.851
		c0-0.347,0.113-0.634,0.341-0.856c0.228-0.223,0.516-0.335,0.864-0.335c0.347,0,0.635,0.112,0.863,0.335
		c0.228,0.223,0.341,0.51,0.341,0.856c0,0.349-0.113,0.632-0.341,0.851c-0.228,0.22-0.516,0.327-0.863,0.327
		C123.415,126.625,123.127,126.518,122.899,126.298z M126.313,134.021c0.316-0.191,0.569-0.463,0.756-0.816
		c0.188-0.354,0.281-0.766,0.281-1.238c0-0.474-0.094-0.886-0.281-1.238c-0.187-0.352-0.438-0.625-0.756-0.813
		c-0.313-0.19-0.672-0.29-1.063-0.29c-0.392,0-0.747,0.1-1.063,0.29c-0.316,0.188-0.569,0.464-0.755,0.813
		c-0.187,0.354-0.281,0.768-0.281,1.238c0,0.473,0.094,0.887,0.281,1.238c0.187,0.354,0.439,0.625,0.755,0.816
		c0.316,0.19,0.671,0.289,1.063,0.289C125.641,134.311,125.996,134.215,126.313,134.021z M125.871,126.298
		c-0.229-0.22-0.342-0.502-0.342-0.851c0-0.347,0.113-0.634,0.342-0.856c0.229-0.222,0.516-0.335,0.863-0.335
		c0.347,0,0.636,0.112,0.863,0.335c0.229,0.223,0.342,0.51,0.342,0.856c0,0.349-0.113,0.632-0.342,0.851
		c-0.229,0.22-0.519,0.327-0.863,0.327C126.387,126.625,126.1,126.518,125.871,126.298z"/>
	<path fill="#2B2B2B" d="M131.688,127.282h3.16v6.92h4.229v2.45h-7.39V127.282L131.688,127.282z"/>
	<path fill="#2B2B2B" d="M149.186,127.282v9.37h-2.598l-3.563-4.256v4.256h-3.078v-9.37h2.598l3.561,4.256v-4.256H149.186z"/>
</g>
</svg>
