<?xml version="1.0" encoding="utf-8"?>
<!-- Generator: Adobe Illustrator 16.0.0, SVG Export Plug-In . SVG Version: 6.00 Build 0)  -->
<!DOCTYPE svg PUBLIC "-//W3C//DTD SVG 1.1//EN" "http://www.w3.org/Graphics/SVG/1.1/DTD/svg11.dtd">
<svg version="1.1" id="Capa_1" xmlns="http://www.w3.org/2000/svg" xmlns:xlink="http://www.w3.org/1999/xlink" x="0px" y="0px"
	 width="250px" height="250px" viewBox="0 0 250 250" enable-background="new 0 0 250 250" xml:space="preserve">
<path fill="#F0F0F0" d="M107.681,143.84c0.246-0.279,0.282-0.723,0.723-0.943c0.037,0.57-0.325,0.867-0.595,1.209
	C107.8,144,107.787,143.898,107.681,143.84z"/>
<path fill="#FFFFFF" d="M126.665,121.153c-0.228-0.339-0.451-0.661-0.661-0.991c-0.809-1.282-1.622-2.563-2.416-3.855
	c-0.394-0.641-0.76-1.301-1.115-1.964c-0.494-0.922-0.981-1.848-1.44-2.788c-0.454-0.927-0.844-1.882-1.145-2.871
	c-0.2-0.663-0.349-1.336-0.316-2.037c0.037-0.811,0.186-1.6,0.487-2.359c0.251-0.636,0.582-1.226,1-1.764
	c0.523-0.673,1.149-1.233,1.874-1.682c0.475-0.292,0.975-0.524,1.503-0.698c0.534-0.176,1.078-0.299,1.641-0.324
	c0.266-0.012,0.53-0.037,0.799-0.03c0.819,0.021,1.612,0.176,2.377,0.477c0.677,0.267,1.306,0.615,1.863,1.082
	c0.229,0.191,0.456,0.387,0.663,0.6c0.679,0.697,1.188,1.502,1.533,2.413c0.232,0.622,0.359,1.266,0.435,1.927
	c0.104,0.967-0.097,1.882-0.421,2.774c-0.284,0.776-0.6,1.542-0.938,2.296c-0.313,0.698-0.656,1.384-1.016,2.061
	c-0.423,0.793-0.861,1.577-1.314,2.352c-0.56,0.951-1.127,1.896-1.711,2.829c-0.521,0.829-1.065,1.641-1.604,2.459
	C126.729,121.084,126.705,121.107,126.665,121.153z M126.673,103.221c-1.896-0.001-3.362,1.483-3.361,3.353
	c0.001,1.871,1.43,3.284,3.211,3.352c2.045,0.078,3.512-1.503,3.51-3.351C130.031,104.718,128.58,103.22,126.673,103.221z"/>
<g>
	<path fill="#FFFFFF" d="M114.244,133.547l-0.709,0.789v2.316h-3.106v-9.373h3.106v3.4l3.079-3.4h3.44l-3.749,4.125l3.936,5.248
		h-3.655L114.244,133.547z"/>
	<path fill="#FFFFFF" d="M122.531,136.236c-0.803-0.418-1.433-1.002-1.887-1.746c-0.456-0.746-0.683-1.588-0.683-2.523
		c0-0.938,0.228-1.777,0.683-2.523c0.455-0.742,1.084-1.324,1.887-1.744c0.804-0.422,1.709-0.631,2.717-0.631
		c1.009,0,1.915,0.209,2.718,0.631c0.804,0.42,1.433,1.002,1.888,1.744c0.455,0.746,0.686,1.59,0.686,2.523
		c0,0.936-0.229,1.777-0.686,2.523c-0.453,0.744-1.084,1.328-1.888,1.746c-0.804,0.42-1.709,0.629-2.718,0.629
		C124.24,136.865,123.334,136.656,122.531,136.236z M122.899,126.298c-0.228-0.22-0.341-0.502-0.341-0.851
		c0-0.347,0.113-0.634,0.341-0.856c0.228-0.223,0.516-0.335,0.864-0.335c0.347,0,0.635,0.112,0.863,0.335
		c0.228,0.223,0.341,0.51,0.341,0.856c0,0.349-0.113,0.632-0.341,0.851c-0.228,0.22-0.516,0.327-0.863,0.327
		C123.415,126.625,123.127,126.518,122.899,126.298z M126.313,134.021c0.316-0.191,0.569-0.463,0.756-0.816
		c0.188-0.354,0.281-0.766,0.281-1.238c0-0.474-0.094-0.886-0.281-1.238c-0.187-0.352-0.438-0.625-0.756-0.813
		c-0.313-0.19-0.672-0.29-1.063-0.29c-0.392,0-0.747,0.1-1.063,0.29c-0.316,0.188-0.569,0.464-0.755,0.813
		c-0.187,0.354-0.281,0.768-0.281,1.238c0,0.473,0.094,0.887,0.281,1.238c0.187,0.354,0.439,0.625,0.755,0.816
		c0.316,0.19,0.671,0.289,1.063,0.289C125.641,134.311,125.996,134.215,126.313,134.021z M125.871,126.298
		c-0.229-0.22-0.342-0.502-0.342-0.851c0-0.347,0.113-0.634,0.342-0.856c0.229-0.222,0.516-0.335,0.863-0.335
		c0.347,0,0.636,0.112,0.863,0.335c0.229,0.223,0.342,0.51,0.342,0.856c0,0.349-0.113,0.632-0.342,0.851
		c-0.229,0.22-0.519,0.327-0.863,0.327C126.387,126.625,126.1,126.518,125.871,126.298z"/>
	<path fill="#FFFFFF" d="M131.688,127.282h3.16v6.92h4.229v2.45h-7.39V127.282L131.688,127.282z"/>
	<path fill="#FFFFFF" d="M149.186,127.282v9.37h-2.598l-3.563-4.256v4.256h-3.078v-9.37h2.598l3.561,4.256v-4.256H149.186z"/>
</g>
<path fill="#FFFFFF" stroke="#FFFFFF" stroke-miterlimit="10" d="M96.143,148.098c0.87-1.207,1.629-2.232,2.354-3.289
	c0.125-0.185,0.184-0.488,0.136-0.707c-0.371-1.646-0.791-3.319-2.183-4.406c-0.753-0.588-1.823-0.762-2.61-1.316
	c-1.356-0.96-2.549-2.148-3.912-3.097c-1.611-1.12-2.914-0.97-4.455,0.227c-0.41,0.318-0.915,0.513-1.345,0.81
	c-0.168,0.115-0.25,0.356-0.312,0.455c-0.749,0-1.517-0.021-2.28,0.016c-0.18,0.006-0.435,0.148-0.516,0.303
	c-1.234,2.346-3.634,3.092-5.707,4.33c-0.766,0.458-1.614,1.59-1.584,2.381c0.048,1.297-0.224,2.313-0.998,3.235
	c-0.787,0.94-1.016,1.959-0.593,3.308c-0.502-0.1-0.89-0.123-1.233-0.256c-1.017-0.396-2.063-0.753-3.003-1.287
	c-0.507-0.287-1.07-0.863-1.172-1.394c-0.211-1.093-0.688-1.991-1.287-2.888c-0.242-0.362-0.493-0.885-0.415-1.268
	c0.338-1.669-0.755-2.604-1.844-3.327c-0.55-0.36-1.543-0.063-2.036-0.063c-0.442-0.625-0.674-1.226-1.112-1.521
	c-0.825-0.555-1.338-0.174-1.673,0.773c-0.18,0.506-0.753,0.868-1.148,1.296c-0.623-0.707-1.25-1.405-1.844-2.137
	c-0.029-0.036,0.257-0.332,0.246-0.316c-1.07-1.216-2.177-2.254-3.003-3.48c-0.595-0.886-1.098-1.566-2.269-1.515
	c-0.421,0.021-0.856-0.209-1.431-0.364c0.509-1.293,1.54-1.83,2.508-2.465c0.552-0.359,1.096-0.816,1.468-1.354
	c0.639-0.926,1.287-1.551,2.546-1.616c0.874-0.046,1.797-0.528,2.553-1.033c1.016-0.675,1.836-1.637,2.842-2.331
	c1.08-0.747,2.323-1.255,3.406-1.998c0.98-0.672,1.844-1.515,2.751-2.291c0.463-0.396,0.914-0.806,1.363-1.217
	c0.269-0.247,0.601-0.466,0.771-0.771c1.005-1.794,2.664-2.368,4.56-2.511c0.269-0.021,0.551,0.142,0.82,0.123
	c0.438-0.032,1.004,0.003,1.286-0.249c1.492-1.325,2.915-2.729,4.355-4.111c1.238-1.189,2.477-2.379,3.699-3.583
	c0.191-0.19,0.296-0.466,0.455-0.691c0.504-0.714,0.907-1.454,2.008-1.5c1.347-0.057,2.773-1.655,2.891-2.989
	c0.119-1.333,0.621-1.79,1.983-1.954c0.297-0.036,0.665-0.288,0.826-0.548c1.734-2.776,4.218-4.467,7.326-5.41
	c1.174-0.356,2.147-1.15,2.538-2.46c0.058-0.196,0.401-0.435,0.614-0.437c0.837-0.002,1.674,0.082,2.251,0.118
	c0.886-0.26,1.589-0.425,2.263-0.673c1.336-0.491,2.813-0.717,3.786-1.937c0.165-0.207,0.437-0.453,0.668-0.464
	c1.602-0.068,2.495-1.186,3.543-2.168c0.692-0.646,1.438-1.177,2.584-1.349c1.428-0.216,3.137-0.468,3.854-2.3
	c0.354-0.903,1.404-0.921,2.176-0.273c1.196,1.006,3.029,0.667,4.08-0.429c0.992-1.033,2.172-2.192,3.465-2.527
	c0.959-0.247,2.632-0.819,3.479,0.755c1.224-0.129,2.444-0.24,3.661-0.396c0.557-0.071,1.098-0.321,1.646-0.337
	c1.57-0.048,2.771-0.705,3.935-1.771c0.95-0.874,2.228-1.403,3.385-2.041c0.41-0.226,0.894-0.32,1.407-0.498
	c0,0.338,0,0.642,0,1.095c1.395-0.196,2.71-0.38,4.038-0.566c-0.419,0.573-0.901,1.161-1.306,1.8
	c-1.162,1.837-3.051,2.517-4.986,2.818c-2.403,0.375-4.299,1.595-6.184,2.697c-0.728,0-1.705-0.29-2.117,0.069
	c-0.592,0.514-1.115,1.533-1.053,2.285c0.146,1.69,0.549,3.386,1.824,4.703c0.68,0.698,1.311,0.877,2.217,0.353
	c0.887-0.511,1.899-0.674,2.922-0.894c1.59-0.343,3.031-1.381,4.53-2.134c0.31-0.154,0.595-0.354,1.144-0.687
	c0,0.894-0.104,1.535,0.029,2.125c0.113,0.514,0.492,0.97,0.887,1.693c-1.15,1.098-1.569,3.378-4.271,3.279
	c-0.966-0.035-1.84,0.363-2.695-0.458c-0.181-0.172-1.012,0.078-1.334,0.365c-0.955,0.847-1.049,2.053-0.84,3.199
	c0.402,2.212,1.122,4.319,2.812,5.932c0.454,0.437,0.991,0.813,1.543,1.127c2.926,1.669,5.862,3.315,8.804,4.958
	c0.67,0.375,1.357,0.714,2.055,1.043c0.209,0.098,0.512,0.215,0.684,0.135c1.059-0.482,2.088-1.025,3.132-1.537
	c1.922-0.94,3.911-1.763,5.733-2.866c0.619-0.374,0.844-1.432,1.178-2.208c0.104-0.231-0.082-0.568-0.055-0.848
	c0.135-1.243,0.916-1.638,1.903-0.864c0.884,0.69,1.572,1.627,2.462,2.303c0.516,0.391,1.252,0.644,1.899,0.669
	c0.938,0.037,1.606,0.27,2.356,0.938c1.535,1.368,3.262,2.558,5.785,1.946c-0.229,0.682-0.379,1.04-0.47,1.411
	c-0.131,0.54-0.424,1.147-0.288,1.624c0.412,1.444,0.434,2.84,0.098,4.298c-0.123,0.543,0.15,1.166,0.135,1.749
	c-0.02,0.574-0.245,1.143-0.252,1.715c-0.006,0.6,0.143,1.201,0.226,1.832c-0.325,0.183-0.685,0.476-1.092,0.597
	c-0.847,0.249-1.065,0.802-0.948,1.59c0.133,0.888-0.212,1.594-1.135,1.479c-2.02-0.25-2.932,1.204-3.78,2.476
	c-0.657,0.983-0.853,2.297-1.18,3.479c-0.375,1.353,0.455,1.902,1.692,2.459c-0.383,0.138-0.76,0.365-1.147,0.396
	c-1.334,0.104-1.957,0.688-2.099,2.028c-0.104,0.979-0.525,1.567-1.527,2.053c-1.2,0.58-2.209,1.606-3.212,2.535
	c-2.146,1.985-3.827,4.319-4.815,7.09c-0.501,1.404-0.953,2.847-1.228,4.308c-0.353,1.879-0.5,3.797-0.743,5.771
	c-0.2-0.059-0.498-0.144-0.984-0.279c0,0.426,0.125,0.855-0.021,1.154c-0.438,0.896-1.021,1.721-1.479,2.605
	c-0.834,1.628-1.644,3.27-2.408,4.93c-0.313,0.685-1.106,0.975-1.949,0.59c-0.76,1.019-0.76,1.019-3.063,1.529
	c0.407,1.811-0.968,2.7-2.091,3.61c-0.352,0.285-1.229,0.004-1.835-0.136c-1.022-0.229-1.533,0.24-1.873,1.123
	c-0.099,0.252-0.38,0.645-0.543,0.627c-1.748-0.18-2.524,1.156-3.437,2.203c-1.34,1.543-2.56,3.189-3.857,4.771
	c-0.753,0.914-2.104,0.842-2.809-0.061c-0.61-0.774-1.269-1.52-1.924-2.256c-0.724-0.813-1.51-1.521-1.512-2.799
	c-0.001-0.88-1.406-1.693-2.279-1.722c-0.404-0.015-0.899-0.308-1.16-0.63c-0.146-0.186,0.084-0.688,0.168-1.041
	c0.09-0.387,0.381-0.813,0.289-1.139c-0.562-1.977-2.077-3.373-3.762-4.08c-1.458-0.611-3.372-0.817-4.968-0.008
	c-1.137,0.578-1.996-0.074-2.996-0.183c-2.19-0.231-4.406-0.244-6.612-0.319c-0.166-0.009-0.384,0.153-0.501,0.301
	c-0.782,0.976-1.563,0.715-2.272-0.039c-0.466-0.49-0.853-0.693-1.572-0.438c-1.138,0.412-1.639-0.609-2.273-1.261
	c-0.774-0.793-1.476-1.67-2.325-2.37c-2.031-1.673-2.78-4.127-1.687-6.4c0.706-1.467,0.218-2.648-0.52-3.856
	C97.166,149.779,96.603,148.852,96.143,148.098z"/>
<path fill="#2B2B2B" d="M125.925,119.859c-0.221-0.331-0.441-0.645-0.646-0.967c-0.789-1.251-1.582-2.5-2.356-3.76
	c-0.385-0.626-0.741-1.27-1.089-1.917c-0.481-0.9-0.956-1.803-1.404-2.72c-0.443-0.905-0.825-1.837-1.116-2.801
	c-0.196-0.647-0.342-1.304-0.31-1.987c0.036-0.792,0.181-1.561,0.476-2.301c0.245-0.62,0.567-1.196,0.974-1.721
	c0.51-0.656,1.122-1.203,1.83-1.641c0.462-0.285,0.95-0.511,1.465-0.681c0.523-0.171,1.052-0.292,1.602-0.316
	c0.26-0.011,0.519-0.036,0.779-0.029c0.8,0.02,1.574,0.172,2.319,0.465c0.658,0.261,1.271,0.601,1.816,1.056
	c0.223,0.186,0.443,0.376,0.646,0.584c0.659,0.679,1.159,1.465,1.495,2.353c0.23,0.607,0.355,1.235,0.424,1.881
	c0.104,0.943-0.096,1.836-0.41,2.705c-0.275,0.757-0.584,1.505-0.913,2.24c-0.306,0.682-0.64,1.351-0.987,2.011
	c-0.412,0.774-0.846,1.539-1.285,2.294c-0.543,0.927-1.099,1.849-1.668,2.76c-0.508,0.809-1.041,1.601-1.565,2.398
	C125.984,119.792,125.963,119.814,125.925,119.859z M125.934,102.366c-1.852-0.001-3.281,1.446-3.281,3.271
	c0.001,1.824,1.396,3.203,3.133,3.269c1.996,0.076,3.427-1.468,3.425-3.268C129.208,103.826,127.792,102.365,125.934,102.366z"/>
<g>
	<path fill="#2B2B2B" d="M94.169,131.309l-0.025-4.166l-1.985,3.344H90.8l-1.986-3.197v4.021h-2.808v-9.143h2.533l2.979,4.87
		l2.898-4.87h2.534l0.025,9.143h-2.806V131.309z"/>
	<path fill="#2B2B2B" d="M104.694,129.715h-3.474l-0.614,1.594h-3.135l3.997-9.142h3.029l3.996,9.142h-3.187L104.694,129.715z
		 M103.846,127.494l-0.889-2.298l-0.887,2.298H103.846z"/>
	<path fill="#2B2B2B" d="M108.991,122.167h3.081v6.751h4.127v2.391h-7.208V122.167z"/>
	<path fill="#2B2B2B" d="M117.048,122.167h3.084v6.751h4.126v2.391h-7.21V122.167z"/>
	<path fill="#2B2B2B" d="M127.117,130.9c-0.785-0.407-1.396-0.978-1.842-1.701c-0.443-0.729-0.667-1.549-0.667-2.463
		c0-0.913,0.224-1.734,0.667-2.46c0.444-0.727,1.057-1.295,1.842-1.704c0.783-0.41,1.666-0.614,2.65-0.614
		c0.981,0,1.865,0.205,2.648,0.614c0.783,0.409,1.396,0.977,1.842,1.704c0.444,0.727,0.666,1.547,0.666,2.46
		c0,0.916-0.222,1.732-0.666,2.463c-0.441,0.727-1.058,1.294-1.842,1.701c-0.784,0.41-1.667,0.615-2.648,0.615
		C128.783,131.518,127.9,131.313,127.117,130.9z M130.807,128.742c0.312-0.188,0.555-0.453,0.737-0.797s0.274-0.746,0.274-1.209
		c0-0.461-0.092-0.862-0.274-1.209c-0.183-0.342-0.429-0.608-0.737-0.795c-0.31-0.187-0.654-0.281-1.037-0.281
		s-0.729,0.094-1.039,0.281c-0.31,0.187-0.556,0.453-0.734,0.795c-0.186,0.347-0.271,0.748-0.271,1.209
		c0,0.463,0.092,0.865,0.271,1.209s0.428,0.609,0.734,0.797c0.312,0.188,0.656,0.281,1.039,0.281S130.497,128.928,130.807,128.742z"
		/>
	<path fill="#2B2B2B" d="M139.968,129.01h-0.836v2.299h-3.082v-9.142h4.401c0.844,0,1.578,0.139,2.207,0.418
		c0.627,0.279,1.109,0.679,1.449,1.201s0.51,1.131,0.51,1.827c0,0.654-0.148,1.225-0.443,1.713
		c-0.296,0.486-0.724,0.874-1.279,1.162l1.918,2.818h-3.291L139.968,129.01z M141.193,124.824c-0.209-0.187-0.521-0.281-0.939-0.281
		h-1.123v2.143h1.123c0.418,0,0.73-0.095,0.939-0.281c0.209-0.188,0.313-0.448,0.313-0.787
		C141.508,125.274,141.402,125.012,141.193,124.824z"/>
	<path fill="#2B2B2B" d="M147.895,130.91c-0.773-0.405-1.383-0.973-1.822-1.698c-0.438-0.726-0.656-1.552-0.656-2.476
		c0-0.922,0.221-1.747,0.656-2.474c0.439-0.727,1.049-1.293,1.822-1.697c0.774-0.405,1.646-0.607,2.611-0.607
		c0.889,0,1.68,0.156,2.377,0.47c0.696,0.313,1.271,0.766,1.725,1.358l-1.943,1.737c-0.564-0.714-1.23-1.071-1.999-1.071
		c-0.646,0-1.162,0.207-1.558,0.621c-0.391,0.414-0.584,0.969-0.584,1.665c0,0.695,0.193,1.252,0.584,1.664
		c0.396,0.414,0.912,0.621,1.558,0.621c0.769,0,1.435-0.356,1.999-1.071l1.943,1.737c-0.453,0.593-1.025,1.045-1.725,1.354
		c-0.697,0.313-1.488,0.474-2.377,0.474C149.539,131.518,148.669,131.313,147.895,130.91z"/>
	<path fill="#2B2B2B" d="M161.594,129.715h-3.474l-0.614,1.594h-3.135l3.997-9.142h3.028l3.996,9.142h-3.188L161.594,129.715z
		 M160.744,127.494l-0.889-2.298l-0.89,2.298H160.744z"/>
</g>
</svg>
