<svg xmlns="http://www.w3.org/2000/svg" xmlns:xlink="http://www.w3.org/1999/xlink" width="662.23" height="663.5" viewBox="0 0 175.22 175.55"><defs><filter height="1" width="1" y="0" x="0" filterUnits="objectBoundingBox" id="a"><feColorMatrix values="0 0 0 0 1 0 0 0 0 1 0 0 0 0 1 0 0 0 1 0" in="SourceGraphic"/></filter><mask id="w"><path fill-opacity=".06" d="M0 0h1280.24v1066.86H0z" filter="url(#a)"/></mask><clipPath id="d"><path d="M1 1h495.93v496.88H1zm0 0"/></clipPath><mask id="e"><use xlink:href="#b" width="100%" height="100%"/></mask><clipPath id="c"><path d="M0 0h497v498H0z"/></clipPath><g clip-path="url(#c)"><g clip-path="url(#d)" id="v"><use transform="translate(.93 .88)" mask="url(#e)" xlink:href="#f" width="100%" height="100%"/></g></g><mask id="y"><path fill-opacity=".15" d="M0 0h1280.24v1066.86H0z" filter="url(#a)"/></mask><clipPath id="i"><path d="M1 1h437.93v439.88H1zm0 0"/></clipPath><mask id="j"><use xlink:href="#g" width="100%" height="100%"/></mask><clipPath id="h"><path d="M0 0h439v441H0z"/></clipPath><g clip-path="url(#h)"><g clip-path="url(#i)" id="x"><use transform="translate(.93 .88)" mask="url(#j)" xlink:href="#k" width="100%" height="100%"/></g></g><clipPath id="z"><path d="M438 332h405v407H438zm0 0"/></clipPath><clipPath id="A"><path d="M439.74 534.04c0 35.47 9.26 70.1 26.88 100.63l-28.56 104.3 106.73-27.99a201.29 201.29 0 0 0 96.21 24.5h.1c110.96 0 201.28-90.3 201.33-201.28a200 200 0 0 0-58.92-142.4 200.06 200.06 0 0 0-142.42-59.02c-110.98 0-201.3 90.29-201.35 201.26M641.1 735.48"/></clipPath><linearGradient gradientTransform="rotate(-90 689.6 49.36) scale(406.19397)" x2="1" gradientUnits="userSpaceOnUse" id="B"><stop offset="0" stop-color="#20b038"/><stop offset=".01" stop-color="#20b038"/><stop offset=".02" stop-color="#21b039"/><stop offset=".02" stop-color="#21b139"/><stop offset=".03" stop-color="#22b139"/><stop offset=".04" stop-color="#22b13a"/><stop offset=".05" stop-color="#23b23a"/><stop offset=".05" stop-color="#23b23b"/><stop offset=".06" stop-color="#24b23b"/><stop offset=".07" stop-color="#24b33b"/><stop offset=".08" stop-color="#25b33c"/><stop offset=".09" stop-color="#25b33c"/><stop offset=".09" stop-color="#26b33c"/><stop offset=".1" stop-color="#26b43d"/><stop offset=".11" stop-color="#27b43d"/><stop offset=".12" stop-color="#27b43e"/><stop offset=".13" stop-color="#28b53e"/><stop offset=".13" stop-color="#28b53e"/><stop offset=".14" stop-color="#29b53f"/><stop offset=".15" stop-color="#29b53f"/><stop offset=".16" stop-color="#2ab640"/><stop offset=".16" stop-color="#2ab640"/><stop offset=".17" stop-color="#2bb640"/><stop offset=".18" stop-color="#2bb741"/><stop offset=".19" stop-color="#2cb741"/><stop offset=".2" stop-color="#2cb742"/><stop offset=".2" stop-color="#2db842"/><stop offset=".21" stop-color="#2db842"/><stop offset=".22" stop-color="#2eb843"/><stop offset=".23" stop-color="#2eb843"/><stop offset=".23" stop-color="#2fb944"/><stop offset=".24" stop-color="#2fb944"/><stop offset=".25" stop-color="#30b944"/><stop offset=".26" stop-color="#30ba45"/><stop offset=".27" stop-color="#31ba45"/><stop offset=".27" stop-color="#31ba45"/><stop offset=".28" stop-color="#32bb46"/><stop offset=".29" stop-color="#32bb46"/><stop offset=".3" stop-color="#33bb47"/><stop offset=".3" stop-color="#33bb47"/><stop offset=".31" stop-color="#34bc47"/><stop offset=".32" stop-color="#34bc48"/><stop offset=".33" stop-color="#35bc48"/><stop offset=".34" stop-color="#35bd49"/><stop offset=".34" stop-color="#36bd49"/><stop offset=".35" stop-color="#36bd49"/><stop offset=".36" stop-color="#37be4a"/><stop offset=".37" stop-color="#37be4a"/><stop offset=".38" stop-color="#38be4b"/><stop offset=".38" stop-color="#38be4b"/><stop offset=".39" stop-color="#39bf4b"/><stop offset=".4" stop-color="#39bf4c"/><stop offset=".41" stop-color="#3abf4c"/><stop offset=".41" stop-color="#3ac04d"/><stop offset=".42" stop-color="#3bc04d"/><stop offset=".43" stop-color="#3bc04d"/><stop offset=".44" stop-color="#3cc04e"/><stop offset=".45" stop-color="#3cc14e"/><stop offset=".45" stop-color="#3dc14e"/><stop offset=".46" stop-color="#3dc14f"/><stop offset=".47" stop-color="#3ec24f"/><stop offset=".48" stop-color="#3ec250"/><stop offset=".48" stop-color="#3fc250"/><stop offset=".49" stop-color="#3fc350"/><stop offset=".5" stop-color="#40c351"/><stop offset=".51" stop-color="#40c351"/><stop offset=".52" stop-color="#41c352"/><stop offset=".52" stop-color="#41c452"/><stop offset=".53" stop-color="#42c452"/><stop offset=".54" stop-color="#42c453"/><stop offset=".55" stop-color="#43c553"/><stop offset=".55" stop-color="#43c554"/><stop offset=".56" stop-color="#44c554"/><stop offset=".57" stop-color="#44c654"/><stop offset=".58" stop-color="#45c655"/><stop offset=".59" stop-color="#45c655"/><stop offset=".59" stop-color="#46c655"/><stop offset=".6" stop-color="#46c756"/><stop offset=".61" stop-color="#47c756"/><stop offset=".62" stop-color="#47c757"/><stop offset=".63" stop-color="#48c857"/><stop offset=".63" stop-color="#48c857"/><stop offset=".64" stop-color="#49c858"/><stop offset=".65" stop-color="#49c858"/><stop offset=".66" stop-color="#4ac959"/><stop offset=".66" stop-color="#4ac959"/><stop offset=".67" stop-color="#4bc959"/><stop offset=".68" stop-color="#4bca5a"/><stop offset=".69" stop-color="#4cca5a"/><stop offset=".7" stop-color="#4cca5b"/><stop offset=".7" stop-color="#4dcb5b"/><stop offset=".71" stop-color="#4dcb5b"/><stop offset=".72" stop-color="#4ecb5c"/><stop offset=".73" stop-color="#4ecb5c"/><stop offset=".73" stop-color="#4fcc5d"/><stop offset=".74" stop-color="#4fcc5d"/><stop offset=".75" stop-color="#50cc5d"/><stop offset=".76" stop-color="#50cd5e"/><stop offset=".77" stop-color="#51cd5e"/><stop offset=".77" stop-color="#51cd5e"/><stop offset=".78" stop-color="#52ce5f"/><stop offset=".79" stop-color="#52ce5f"/><stop offset=".8" stop-color="#53ce60"/><stop offset=".8" stop-color="#53ce60"/><stop offset=".81" stop-color="#54cf60"/><stop offset=".82" stop-color="#54cf61"/><stop offset=".83" stop-color="#55cf61"/><stop offset=".84" stop-color="#55d062"/><stop offset=".84" stop-color="#56d062"/><stop offset=".85" stop-color="#56d062"/><stop offset=".86" stop-color="#57d163"/><stop offset=".87" stop-color="#57d163"/><stop offset=".88" stop-color="#58d164"/><stop offset=".88" stop-color="#58d164"/><stop offset=".89" stop-color="#59d264"/><stop offset=".9" stop-color="#59d265"/><stop offset=".91" stop-color="#5ad265"/><stop offset=".91" stop-color="#5ad366"/><stop offset=".92" stop-color="#5bd366"/><stop offset=".93" stop-color="#5bd366"/><stop offset=".94" stop-color="#5cd367"/><stop offset=".95" stop-color="#5cd467"/><stop offset=".95" stop-color="#5dd467"/><stop offset=".96" stop-color="#5dd468"/><stop offset=".97" stop-color="#5ed568"/><stop offset=".98" stop-color="#5ed569"/><stop offset=".98" stop-color="#5fd569"/><stop offset=".99" stop-color="#5fd669"/><stop offset="1" stop-color="#60d66a"/></linearGradient><mask id="D"><path fill-opacity=".04" d="M0 0h1280.24v1066.86H0z" filter="url(#a)"/></mask><clipPath id="n"><path d="M1 1h443.93v445.88H1zm0 0"/></clipPath><mask id="o"><use xlink:href="#l" width="100%" height="100%"/></mask><clipPath id="m"><path d="M0 0h445v447H0z"/></clipPath><g clip-path="url(#m)"><g clip-path="url(#n)" id="C"><use transform="translate(.93 .88)" mask="url(#o)" xlink:href="#p" width="100%" height="100%"/></g></g><clipPath id="E"><path d="M430 325h420v422H430zm0 0"/></clipPath><clipPath id="F"><path d="M432.55 533.98A208.12 208.12 0 0 0 460.4 638.2L430.8 746.25l110.57-29a208.4 208.4 0 0 0 99.66 25.4h.1c114.94 0 208.5-93.55 208.56-208.5a207.25 207.25 0 0 0-61.03-147.51 207.28 207.28 0 0 0-147.54-61.15c-114.96 0-208.52 93.53-208.57 208.49m65.85 98.79l-4.13-6.56a172.81 172.81 0 0 1-26.5-92.22c.03-95.55 77.8-173.28 173.42-173.28 46.3.02 89.82 18.06 122.55 50.82a172.23 172.23 0 0 1 50.73 122.6c-.04 95.55-77.8 173.3-173.35 173.3h-.07a173.1 173.1 0 0 1-88.23-24.16l-6.33-3.75-65.61 17.2zm142.72 109.87"/></clipPath><linearGradient gradientTransform="rotate(-90 693.25 53) scale(420.76019)" x2="1" gradientUnits="userSpaceOnUse" id="G"><stop offset="0" stop-color="#f9f9f9"/><stop offset=".13" stop-color="#f9f9f9"/><stop offset=".25" stop-color="#fafafa"/><stop offset=".38" stop-color="#fbfbfb"/><stop offset=".5" stop-color="#fcfcfc"/><stop offset=".63" stop-color="#fcfcfc"/><stop offset=".75" stop-color="#fdfdfd"/><stop offset=".88" stop-color="#fefefe"/><stop offset="1" stop-color="#fff"/></linearGradient><mask id="I"><path fill-opacity=".06" d="M0 0h1280.24v1066.86H0z" filter="url(#a)"/></mask><clipPath id="s"><path d="M1 1h236.93v221.88H1zm0 0"/></clipPath><mask id="t"><use xlink:href="#q" width="100%" height="100%"/></mask><clipPath id="r"><path d="M0 0h238v223H0z"/></clipPath><g clip-path="url(#r)"><g clip-path="url(#s)" id="H"><use transform="translate(.93 .88)" mask="url(#t)" xlink:href="#u" width="100%" height="100%"/></g></g></defs><g transform="translate(10.2 27.59)"><use height="100%" width="100%" xlink:href="#v" transform="matrix(.35278 0 0 .35278 -10.42 -27.8)" mask="url(#w)"/><use height="100%" width="100%" xlink:href="#x" transform="matrix(.35278 0 0 .35278 -.55 -18.28)" mask="url(#y)"/><path d="M44.08 108.9l2.23 1.32a61.06 61.06 0 0 0 31.13 8.53h.02a61.23 61.23 0 0 0 61.15-61.14c.01-16.34-6.34-31.7-17.9-43.25A60.75 60.75 0 0 0 77.49-3.57a61.23 61.23 0 0 0-61.17 61.13c0 11.55 3.22 22.8 9.34 32.54l1.46 2.3-6.18 22.57zM3.27 132.44L13.7 94.33a73.42 73.42 0 0 1-9.82-36.77C3.9 17 36.9-16 77.46-16a73.12 73.12 0 0 1 52.05 21.57 73.11 73.11 0 0 1 21.53 52.04c-.02 40.55-33.03 73.55-73.58 73.55h-.03a73.53 73.53 0 0 1-35.16-8.96zm0 0" fill="#fff"/><g clip-path="url(#z)" transform="matrix(.35278 0 0 .35278 -148.71 -130.82)"><g clip-path="url(#A)"><path d="M438.06 738.97h404.4v-406.2h-404.4zm0 0" fill="url(#B)"/></g></g><use height="100%" width="100%" xlink:href="#C" transform="matrix(.35278 0 0 .35278 -1.6 -20.4)" mask="url(#D)"/><g clip-path="url(#E)" transform="matrix(.35278 0 0 .35278 -148.71 -130.82)"><g clip-path="url(#F)"><path d="M430.8 746.25h418.9V325.49H430.8zm0 0" fill="url(#G)"/></g></g><use height="100%" width="100%" xlink:href="#H" transform="matrix(.35278 0 0 .35278 35.44 19.46)" mask="url(#I)"/><path d="M59.07 26.8c-1.38-3.05-2.83-3.11-4.13-3.17-1.08-.04-2.3-.04-3.53-.04-1.22 0-3.22.46-4.9 2.3-1.69 1.84-6.44 6.29-6.44 15.33 0 9.05 6.6 17.79 7.51 19.01.92 1.23 12.72 20.38 31.4 27.75 15.54 6.13 18.7 4.9 22.07 4.6 3.37-.3 10.87-4.44 12.4-8.74 1.54-4.29 1.54-7.97 1.08-8.74-.46-.76-1.69-1.22-3.53-2.14-1.83-.92-10.87-5.37-12.56-5.98-1.68-.62-2.9-.92-4.14.92a106.78 106.78 0 0 1-5.82 7.2c-1.07 1.23-2.14 1.38-3.98.47-1.84-.93-7.76-2.87-14.78-9.13a55.42 55.42 0 0 1-10.23-12.73c-1.07-1.84-.11-2.83.8-3.75.83-.82 1.85-2.15 2.77-3.22.91-1.07 1.22-1.84 1.83-3.06.61-1.23.3-2.3-.15-3.23-.46-.91-4.03-10-5.67-13.64" fill="#fff" fill-rule="evenodd"/></g></svg>